# xmcd
#
# Track frame offsets:
#	150
#	10008
#	20424
#	31303
#	42564
#	55126
#	66758
#	76435
#	86952
#	97264
#	109001
#	121966
#	133603
#	145740
#	157537
#	169300
#	180375
#	191989
#
# Disc length: 2699 seconds
#
# Revision: 1
# Processed by: cddbd v1.5.2PL0 Copyright (c) Steve Scherf et al.
# Submitted via: audiograbber 1.83.01
#
DISCID=f00a8912
DTITLE=Drifters The - The Drifters - Greatest Hits CD2
DYEAR=19
DGENRE=RR-Boo/
TTITLE0=There goes my Baby
TTITLE1=(If you Cry) True Love True Love
TTITLE2=Dance with me
TTITLE3=This Magic Moments
TTITLE4=Lonely Winds
TTITLE5=Save th e last Dance for me
TTITLE6=I Count the Tears
TTITLE7=Some Kind of Wonderful
TTITLE8=Please Stay
TTITLE9=Sweets for my Sweet
TTITLE10=Room full of Tears
TTITLE11=When my little Girl is Smiling
TTITLE12=Stranger of the Shore
TTITLE13=Up on the Roof
TTITLE14=Nobody but me
TTITLE15=Suddenly there's a Valley
TTITLE16=Mexican Divorce
TTITLE17=Sometimes i Wonder
EXTD=
EXTT0=
EXTT1=
EXTT2=
EXTT3=
EXTT4=
EXTT5=
EXTT6=
EXTT7=
EXTT8=
EXTT9=
EXTT10=
EXTT11=
EXTT12=
EXTT13=
EXTT14=
EXTT15=
EXTT16=
EXTT17=
PLAYORDER=
